<svg id="Layer_1" enable-background="new 0 0 511.941 511.941" height="512" viewBox="0 0 511.941 511.941" width="512" xmlns="http://www.w3.org/2000/svg"><path d="m486.77 431.566c-3.02 29.2-26.05 52.3-55.25 55.33-117 12.18-234.49 12.17-351.11.02-29.19-3.05-52.21-26.14-55.24-55.34-12.231-118.191-12.298-232.387 0-351.09 3.03-29.2 26.06-52.3 55.25-55.34 116.9-12.16 234.39-12.16 351.1-.01 29.2 3.05 52.22 26.15 55.24 55.35 12.265 118.621 12.283 232.699.01 351.08z" fill="#f2f2f2"/><path d="m486.77 431.566c-3.02 29.2-26.05 52.3-55.25 55.33-117 12.18-234.49 12.17-351.11.02-29.19-3.05-52.21-26.14-55.24-55.34-8.07-77.98-10.83-154.02-8.28-230.68 111.033-24.324 184.354 13.871 267.97 38.36 103.999 30.48 154.194 14.863 210.73-18.22 1.49 69.9-1.45 139.44-8.82 210.53z" fill="#ece2e2"/><circle cx="255.97" cy="256.026" fill="#74f7f9" r="176"/><path d="m392.16 367.506c-32.27 39.39-81.3 64.52-136.19 64.52-97.2 0-176-78.8-176-176 0-71.21 42.29-132.54 103.13-160.25-16.06 72.74-28.79 247.089 209.06 271.73z" fill="#8dffff"/><path d="m78.755 502.825c-36.575-3.811-65.681-32.774-69.495-69.601-12.346-119.233-12.347-235.154-.001-354.385 3.787-36.582 32.68-65.772 69.511-69.603 117.699-12.244 236.939-12.247 354.408-.01 36.576 3.811 65.686 32.778 69.497 69.608 12.35 119.365 12.354 235.285.013 354.386-3.793 36.581-32.686 65.763-69.513 69.594.101 0-158.579 20.413-354.42.011zm3.326-461.76c-21.521 2.238-38.76 19.511-40.992 41.069-12.116 117.015-12.116 230.779.001 347.795 2.232 21.556 19.467 38.827 40.98 41.068 196.009 20.423 337.995-.012 347.794-.012 21.519-2.238 38.759-19.509 40.993-41.064 12.111-116.882 12.107-230.646-.013-347.794-2.23-21.559-19.467-38.832-40.982-41.073-111.457-11.611-228.509-12.397-347.781.011z"/><path d="m255.97 448.026c-105.869 0-192-86.131-192-192s86.131-192 192-192 192 86.131 192 192-86.13 192-192 192zm0-352c-88.224 0-160 71.775-160 160s71.776 160 160 160c88.225 0 160-71.775 160-160s-71.775-160-160-160z"/><path d="m278.598 256.026 52.686-52.687c6.249-6.248 6.249-16.379 0-22.627-6.248-6.248-16.379-6.248-22.627 0l-52.687 52.687-52.686-52.687c-6.249-6.248-16.379-6.248-22.628 0-6.248 6.248-6.248 16.379 0 22.627l52.687 52.687-52.687 52.687c-6.248 6.248-6.248 16.379 0 22.627 6.25 6.249 16.379 6.248 22.628 0l52.686-52.687 52.687 52.687c6.249 6.249 16.379 6.248 22.627 0 6.249-6.248 6.249-16.379 0-22.627z"/></svg>