<svg id="Layer_1" enable-background="new 0 0 511.941 511.941" height="512" viewBox="0 0 511.941 511.941" width="512" xmlns="http://www.w3.org/2000/svg"><path d="m431.52 486.9c-116.999 12.171-234.487 12.161-351.107.011-29.193-3.041-52.215-26.14-55.238-55.334-12.273-118.52-12.273-232.571-.001-351.091 3.023-29.2 26.053-52.298 55.251-55.336 116.899-12.161 234.386-12.168 351.095-.011 29.196 3.041 52.219 26.143 55.24 55.341 12.276 118.648 12.28 232.7.013 351.09-3.026 29.198-26.057 52.292-55.253 55.33z" fill="#ece2e2"/><circle cx="255.97" cy="256.025" fill="#74f7f9" r="176"/><path d="m392.16 367.505c-32.27 39.39-81.3 64.52-136.19 64.52-97.2 0-176-78.8-176-176 0-71.21 42.29-132.54 103.13-160.25-16.06 72.74-28.79 247.09 209.06 271.73z" fill="#8dffff"/><path d="m255.97 448.025c-105.869 0-192-86.131-192-192s86.131-192 192-192 192 86.131 192 192-86.131 192-192 192zm0-352c-88.225 0-160 71.776-160 160s71.775 160 160 160 160-71.776 160-160-71.775-160-160-160z"/><path d="m207.97 288.025c-17.645 0-32-14.355-32-32s14.355-32 32-32 32 14.355 32 32-14.355 32-32 32zm-.001-32.02.001.021c0-.014-.001-.021-.001-.021z"/><path d="m303.97 288.025c-17.645 0-32-14.355-32-32s14.355-32 32-32 32 14.355 32 32-14.355 32-32 32zm-.001-32.02.001.021c0-.014-.001-.021-.001-.021z"/><path d="m78.754 502.825c-36.575-3.811-65.681-32.776-69.494-69.601-12.346-119.233-12.346-235.154-.002-354.386 3.789-36.584 32.681-65.771 69.512-69.602 117.697-12.243 236.937-12.247 354.407-.011 36.578 3.811 65.687 32.779 69.498 69.608 12.35 119.366 12.354 235.286.013 354.386-3.793 36.58-32.683 65.763-69.513 69.594.1.001-158.581 20.414-354.421.012zm3.327-461.761c-21.521 2.238-38.76 19.511-40.992 41.069-12.116 117.014-12.116 230.78.001 347.796 2.231 21.555 19.466 38.827 40.98 41.068 196.004 20.42 337.995-.012 347.794-.012 21.519-2.239 38.759-19.509 40.993-41.064 12.111-116.882 12.107-230.646-.013-347.794-2.23-21.558-19.467-38.833-40.983-41.074-111.684-11.634-228.75-12.371-347.78.011z"/></svg>